<mxfile host="app.diagrams.net" modified="2021-03-30T21:14:31.246Z" agent="5.0 (Windows NT 10.0; Win64; x64) AppleWebKit/537.36 (KHTML, like Gecko) Chrome/89.0.4389.90 Safari/537.36" etag="n2cjVrRVE6uZVU0h41Yd" version="14.5.3" type="github">
  <diagram id="C5RBs43oDa-KdzZeNtuy" name="Page-1">
    <mxGraphModel dx="2222" dy="804" grid="1" gridSize="10" guides="1" tooltips="1" connect="1" arrows="1" fold="1" page="0" pageScale="1" pageWidth="827" pageHeight="1169" math="0" shadow="0">
      <root>
        <mxCell id="WIyWlLk6GJQsqaUBKTNV-0" />
        <mxCell id="WIyWlLk6GJQsqaUBKTNV-1" parent="WIyWlLk6GJQsqaUBKTNV-0" />
        <mxCell id="0xpriwAW6CMoNW8QU97v-0" value="&lt;font style=&quot;vertical-align: inherit&quot;&gt;&lt;font style=&quot;vertical-align: inherit&quot;&gt;start&lt;/font&gt;&lt;/font&gt;" style="ellipse;whiteSpace=wrap;html=1;" vertex="1" parent="WIyWlLk6GJQsqaUBKTNV-1">
          <mxGeometry x="230" y="80" width="90" height="60" as="geometry" />
        </mxCell>
        <mxCell id="0xpriwAW6CMoNW8QU97v-1" value="" style="endArrow=classic;html=1;" edge="1" parent="WIyWlLk6GJQsqaUBKTNV-1">
          <mxGeometry width="50" height="50" relative="1" as="geometry">
            <mxPoint x="274.5" y="140" as="sourcePoint" />
            <mxPoint x="274.5" y="190" as="targetPoint" />
          </mxGeometry>
        </mxCell>
        <mxCell id="0xpriwAW6CMoNW8QU97v-2" value="&lt;font style=&quot;vertical-align: inherit&quot;&gt;&lt;font style=&quot;vertical-align: inherit&quot;&gt;&lt;font style=&quot;vertical-align: inherit&quot;&gt;&lt;font style=&quot;vertical-align: inherit&quot;&gt;&lt;font style=&quot;vertical-align: inherit&quot;&gt;&lt;font style=&quot;vertical-align: inherit&quot;&gt;&lt;font style=&quot;vertical-align: inherit&quot;&gt;&lt;font style=&quot;vertical-align: inherit&quot;&gt;e_nro_1, e_nro_2, e_nro3&lt;/font&gt;&lt;/font&gt;&lt;/font&gt;&lt;/font&gt;&lt;/font&gt;&lt;/font&gt;&lt;/font&gt;&lt;/font&gt;" style="shape=internalStorage;whiteSpace=wrap;html=1;backgroundOutline=1;" vertex="1" parent="WIyWlLk6GJQsqaUBKTNV-1">
          <mxGeometry x="170" y="190" width="210" height="50" as="geometry" />
        </mxCell>
        <mxCell id="0xpriwAW6CMoNW8QU97v-5" value="" style="endArrow=classic;html=1;" edge="1" parent="WIyWlLk6GJQsqaUBKTNV-1">
          <mxGeometry width="50" height="50" relative="1" as="geometry">
            <mxPoint x="274.5" y="240" as="sourcePoint" />
            <mxPoint x="274.5" y="280" as="targetPoint" />
          </mxGeometry>
        </mxCell>
        <mxCell id="0xpriwAW6CMoNW8QU97v-6" value="&lt;font style=&quot;vertical-align: inherit&quot;&gt;&lt;font style=&quot;vertical-align: inherit&quot;&gt;e_nro&lt;/font&gt;&lt;/font&gt;" style="html=1;strokeWidth=2;shape=manualInput;whiteSpace=wrap;rounded=1;size=26;arcSize=11;" vertex="1" parent="WIyWlLk6GJQsqaUBKTNV-1">
          <mxGeometry x="225" y="270" width="100" height="60" as="geometry" />
        </mxCell>
        <mxCell id="0xpriwAW6CMoNW8QU97v-7" value="&lt;font style=&quot;vertical-align: inherit&quot;&gt;&lt;font style=&quot;vertical-align: inherit&quot;&gt;e_nro&lt;/font&gt;&lt;/font&gt;" style="html=1;strokeWidth=2;shape=manualInput;whiteSpace=wrap;rounded=1;size=26;arcSize=11;" vertex="1" parent="WIyWlLk6GJQsqaUBKTNV-1">
          <mxGeometry x="225" y="350" width="100" height="60" as="geometry" />
        </mxCell>
        <mxCell id="0xpriwAW6CMoNW8QU97v-8" value="&lt;font style=&quot;vertical-align: inherit&quot;&gt;&lt;font style=&quot;vertical-align: inherit&quot;&gt;e_nro&lt;/font&gt;&lt;/font&gt;" style="html=1;strokeWidth=2;shape=manualInput;whiteSpace=wrap;rounded=1;size=26;arcSize=11;" vertex="1" parent="WIyWlLk6GJQsqaUBKTNV-1">
          <mxGeometry x="225" y="430" width="100" height="60" as="geometry" />
        </mxCell>
        <mxCell id="0xpriwAW6CMoNW8QU97v-9" value="" style="endArrow=classic;html=1;" edge="1" parent="WIyWlLk6GJQsqaUBKTNV-1">
          <mxGeometry width="50" height="50" relative="1" as="geometry">
            <mxPoint x="274.5" y="330" as="sourcePoint" />
            <mxPoint x="274.5" y="360" as="targetPoint" />
          </mxGeometry>
        </mxCell>
        <mxCell id="0xpriwAW6CMoNW8QU97v-10" value="" style="endArrow=classic;html=1;" edge="1" parent="WIyWlLk6GJQsqaUBKTNV-1">
          <mxGeometry width="50" height="50" relative="1" as="geometry">
            <mxPoint x="274.5" y="410" as="sourcePoint" />
            <mxPoint x="274.5" y="440" as="targetPoint" />
          </mxGeometry>
        </mxCell>
        <mxCell id="0xpriwAW6CMoNW8QU97v-13" style="edgeStyle=orthogonalEdgeStyle;rounded=0;orthogonalLoop=1;jettySize=auto;html=1;exitX=1;exitY=0.5;exitDx=0;exitDy=0;exitPerimeter=0;entryX=0.5;entryY=0;entryDx=0;entryDy=0;entryPerimeter=0;" edge="1" parent="WIyWlLk6GJQsqaUBKTNV-1" source="0xpriwAW6CMoNW8QU97v-11" target="0xpriwAW6CMoNW8QU97v-17">
          <mxGeometry relative="1" as="geometry">
            <mxPoint x="480" y="565" as="targetPoint" />
          </mxGeometry>
        </mxCell>
        <mxCell id="0xpriwAW6CMoNW8QU97v-15" style="edgeStyle=orthogonalEdgeStyle;rounded=0;orthogonalLoop=1;jettySize=auto;html=1;exitX=0;exitY=0.5;exitDx=0;exitDy=0;exitPerimeter=0;entryX=0.5;entryY=0;entryDx=0;entryDy=0;entryPerimeter=0;" edge="1" parent="WIyWlLk6GJQsqaUBKTNV-1" source="0xpriwAW6CMoNW8QU97v-11" target="0xpriwAW6CMoNW8QU97v-137">
          <mxGeometry relative="1" as="geometry">
            <mxPoint x="76" y="565" as="targetPoint" />
          </mxGeometry>
        </mxCell>
        <mxCell id="0xpriwAW6CMoNW8QU97v-11" value="&lt;font style=&quot;vertical-align: inherit&quot;&gt;&lt;font style=&quot;vertical-align: inherit&quot;&gt;e_nro&amp;gt;e_nro_2&lt;/font&gt;&lt;/font&gt;" style="strokeWidth=2;html=1;shape=mxgraph.flowchart.decision;whiteSpace=wrap;" vertex="1" parent="WIyWlLk6GJQsqaUBKTNV-1">
          <mxGeometry x="202.5" y="530" width="145" height="70" as="geometry" />
        </mxCell>
        <mxCell id="0xpriwAW6CMoNW8QU97v-14" value="&lt;font style=&quot;vertical-align: inherit&quot;&gt;&lt;font style=&quot;vertical-align: inherit&quot;&gt;sim&lt;/font&gt;&lt;/font&gt;" style="text;html=1;align=center;verticalAlign=middle;resizable=0;points=[];autosize=1;" vertex="1" parent="WIyWlLk6GJQsqaUBKTNV-1">
          <mxGeometry x="410" y="540" width="30" height="20" as="geometry" />
        </mxCell>
        <mxCell id="0xpriwAW6CMoNW8QU97v-16" value="&lt;font style=&quot;vertical-align: inherit&quot;&gt;&lt;font style=&quot;vertical-align: inherit&quot;&gt;nÃ£o&lt;/font&gt;&lt;/font&gt;" style="text;html=1;align=center;verticalAlign=middle;resizable=0;points=[];autosize=1;" vertex="1" parent="WIyWlLk6GJQsqaUBKTNV-1">
          <mxGeometry x="120" y="540" width="40" height="20" as="geometry" />
        </mxCell>
        <mxCell id="0xpriwAW6CMoNW8QU97v-18" style="edgeStyle=orthogonalEdgeStyle;rounded=0;orthogonalLoop=1;jettySize=auto;html=1;exitX=1;exitY=0.5;exitDx=0;exitDy=0;exitPerimeter=0;entryX=0.5;entryY=0;entryDx=0;entryDy=0;entryPerimeter=0;" edge="1" parent="WIyWlLk6GJQsqaUBKTNV-1" source="0xpriwAW6CMoNW8QU97v-17" target="0xpriwAW6CMoNW8QU97v-20">
          <mxGeometry relative="1" as="geometry">
            <mxPoint x="670" y="635" as="targetPoint" />
          </mxGeometry>
        </mxCell>
        <mxCell id="0xpriwAW6CMoNW8QU97v-26" style="edgeStyle=orthogonalEdgeStyle;rounded=0;orthogonalLoop=1;jettySize=auto;html=1;exitX=0;exitY=0.5;exitDx=0;exitDy=0;exitPerimeter=0;entryX=0.5;entryY=0;entryDx=0;entryDy=0;entryPerimeter=0;" edge="1" parent="WIyWlLk6GJQsqaUBKTNV-1" source="0xpriwAW6CMoNW8QU97v-17" target="0xpriwAW6CMoNW8QU97v-28">
          <mxGeometry relative="1" as="geometry">
            <mxPoint x="380" y="635" as="targetPoint" />
          </mxGeometry>
        </mxCell>
        <mxCell id="0xpriwAW6CMoNW8QU97v-17" value="&lt;font style=&quot;vertical-align: inherit&quot;&gt;&lt;font style=&quot;vertical-align: inherit&quot;&gt;e_nro&amp;gt;nro_3&lt;/font&gt;&lt;/font&gt;" style="strokeWidth=2;html=1;shape=mxgraph.flowchart.decision;whiteSpace=wrap;" vertex="1" parent="WIyWlLk6GJQsqaUBKTNV-1">
          <mxGeometry x="470" y="600" width="120" height="70" as="geometry" />
        </mxCell>
        <mxCell id="0xpriwAW6CMoNW8QU97v-19" value="sim" style="text;html=1;align=center;verticalAlign=middle;resizable=0;points=[];autosize=1;" vertex="1" parent="WIyWlLk6GJQsqaUBKTNV-1">
          <mxGeometry x="610" y="610" width="30" height="20" as="geometry" />
        </mxCell>
        <mxCell id="0xpriwAW6CMoNW8QU97v-20" value="e_nro_3" style="strokeWidth=2;html=1;shape=mxgraph.flowchart.document2;whiteSpace=wrap;size=0.25;" vertex="1" parent="WIyWlLk6GJQsqaUBKTNV-1">
          <mxGeometry x="630" y="670" width="80" height="50" as="geometry" />
        </mxCell>
        <mxCell id="0xpriwAW6CMoNW8QU97v-21" value="e_nro_2" style="strokeWidth=2;html=1;shape=mxgraph.flowchart.document2;whiteSpace=wrap;size=0.25;" vertex="1" parent="WIyWlLk6GJQsqaUBKTNV-1">
          <mxGeometry x="630" y="740" width="80" height="50" as="geometry" />
        </mxCell>
        <mxCell id="0xpriwAW6CMoNW8QU97v-22" value="" style="endArrow=classic;html=1;" edge="1" parent="WIyWlLk6GJQsqaUBKTNV-1">
          <mxGeometry width="50" height="50" relative="1" as="geometry">
            <mxPoint x="669.5" y="720" as="sourcePoint" />
            <mxPoint x="669.5" y="740" as="targetPoint" />
          </mxGeometry>
        </mxCell>
        <mxCell id="0xpriwAW6CMoNW8QU97v-23" value="e_nro_3" style="strokeWidth=2;html=1;shape=mxgraph.flowchart.document2;whiteSpace=wrap;size=0.25;" vertex="1" parent="WIyWlLk6GJQsqaUBKTNV-1">
          <mxGeometry x="630" y="670" width="80" height="50" as="geometry" />
        </mxCell>
        <mxCell id="0xpriwAW6CMoNW8QU97v-24" value="e_nro_1" style="strokeWidth=2;html=1;shape=mxgraph.flowchart.document2;whiteSpace=wrap;size=0.25;" vertex="1" parent="WIyWlLk6GJQsqaUBKTNV-1">
          <mxGeometry x="630" y="810" width="80" height="50" as="geometry" />
        </mxCell>
        <mxCell id="0xpriwAW6CMoNW8QU97v-25" value="" style="endArrow=classic;html=1;" edge="1" parent="WIyWlLk6GJQsqaUBKTNV-1">
          <mxGeometry width="50" height="50" relative="1" as="geometry">
            <mxPoint x="669.5" y="790" as="sourcePoint" />
            <mxPoint x="669.5" y="810" as="targetPoint" />
          </mxGeometry>
        </mxCell>
        <mxCell id="0xpriwAW6CMoNW8QU97v-27" value="nao" style="text;html=1;align=center;verticalAlign=middle;resizable=0;points=[];autosize=1;" vertex="1" parent="WIyWlLk6GJQsqaUBKTNV-1">
          <mxGeometry x="410" y="610" width="40" height="20" as="geometry" />
        </mxCell>
        <mxCell id="0xpriwAW6CMoNW8QU97v-29" style="edgeStyle=orthogonalEdgeStyle;rounded=0;orthogonalLoop=1;jettySize=auto;html=1;exitX=1;exitY=0.5;exitDx=0;exitDy=0;exitPerimeter=0;entryX=0.5;entryY=0;entryDx=0;entryDy=0;entryPerimeter=0;" edge="1" parent="WIyWlLk6GJQsqaUBKTNV-1" source="0xpriwAW6CMoNW8QU97v-28" target="0xpriwAW6CMoNW8QU97v-31">
          <mxGeometry relative="1" as="geometry">
            <mxPoint x="510" y="700" as="targetPoint" />
          </mxGeometry>
        </mxCell>
        <mxCell id="0xpriwAW6CMoNW8QU97v-36" style="edgeStyle=orthogonalEdgeStyle;rounded=0;orthogonalLoop=1;jettySize=auto;html=1;exitX=0;exitY=0.5;exitDx=0;exitDy=0;exitPerimeter=0;entryX=0.5;entryY=0;entryDx=0;entryDy=0;entryPerimeter=0;" edge="1" parent="WIyWlLk6GJQsqaUBKTNV-1" source="0xpriwAW6CMoNW8QU97v-28" target="0xpriwAW6CMoNW8QU97v-38">
          <mxGeometry relative="1" as="geometry">
            <mxPoint x="220" y="700" as="targetPoint" />
          </mxGeometry>
        </mxCell>
        <mxCell id="0xpriwAW6CMoNW8QU97v-28" value="e_nro_1&amp;gt;e_nro_3" style="strokeWidth=2;html=1;shape=mxgraph.flowchart.decision;whiteSpace=wrap;" vertex="1" parent="WIyWlLk6GJQsqaUBKTNV-1">
          <mxGeometry x="294" y="670" width="146" height="60" as="geometry" />
        </mxCell>
        <mxCell id="0xpriwAW6CMoNW8QU97v-30" value="sim" style="text;html=1;align=center;verticalAlign=middle;resizable=0;points=[];autosize=1;" vertex="1" parent="WIyWlLk6GJQsqaUBKTNV-1">
          <mxGeometry x="460" y="680" width="30" height="20" as="geometry" />
        </mxCell>
        <mxCell id="0xpriwAW6CMoNW8QU97v-31" value="e_nro_2" style="strokeWidth=2;html=1;shape=mxgraph.flowchart.document2;whiteSpace=wrap;size=0.25;" vertex="1" parent="WIyWlLk6GJQsqaUBKTNV-1">
          <mxGeometry x="460" y="730" width="80" height="50" as="geometry" />
        </mxCell>
        <mxCell id="0xpriwAW6CMoNW8QU97v-32" value="" style="endArrow=classic;html=1;" edge="1" parent="WIyWlLk6GJQsqaUBKTNV-1">
          <mxGeometry width="50" height="50" relative="1" as="geometry">
            <mxPoint x="499.5" y="850" as="sourcePoint" />
            <mxPoint x="499.5" y="870" as="targetPoint" />
          </mxGeometry>
        </mxCell>
        <mxCell id="0xpriwAW6CMoNW8QU97v-33" value="" style="endArrow=classic;html=1;" edge="1" parent="WIyWlLk6GJQsqaUBKTNV-1">
          <mxGeometry width="50" height="50" relative="1" as="geometry">
            <mxPoint x="499.5" y="780" as="sourcePoint" />
            <mxPoint x="499.5" y="800" as="targetPoint" />
          </mxGeometry>
        </mxCell>
        <mxCell id="0xpriwAW6CMoNW8QU97v-34" value="e_nro_3" style="strokeWidth=2;html=1;shape=mxgraph.flowchart.document2;whiteSpace=wrap;size=0.25;" vertex="1" parent="WIyWlLk6GJQsqaUBKTNV-1">
          <mxGeometry x="460" y="800" width="80" height="50" as="geometry" />
        </mxCell>
        <mxCell id="0xpriwAW6CMoNW8QU97v-44" style="edgeStyle=orthogonalEdgeStyle;rounded=0;orthogonalLoop=1;jettySize=auto;html=1;entryX=0.5;entryY=0;entryDx=0;entryDy=0;entryPerimeter=0;" edge="1" parent="WIyWlLk6GJQsqaUBKTNV-1" source="0xpriwAW6CMoNW8QU97v-35" target="0xpriwAW6CMoNW8QU97v-144">
          <mxGeometry relative="1" as="geometry">
            <mxPoint x="500" y="1040" as="targetPoint" />
            <Array as="points">
              <mxPoint x="510" y="1080" />
              <mxPoint x="275" y="1080" />
            </Array>
          </mxGeometry>
        </mxCell>
        <mxCell id="0xpriwAW6CMoNW8QU97v-35" value="e_nro_1" style="strokeWidth=2;html=1;shape=mxgraph.flowchart.document2;whiteSpace=wrap;size=0.25;" vertex="1" parent="WIyWlLk6GJQsqaUBKTNV-1">
          <mxGeometry x="460" y="870" width="80" height="50" as="geometry" />
        </mxCell>
        <mxCell id="0xpriwAW6CMoNW8QU97v-37" value="nao" style="text;html=1;align=center;verticalAlign=middle;resizable=0;points=[];autosize=1;" vertex="1" parent="WIyWlLk6GJQsqaUBKTNV-1">
          <mxGeometry x="240" y="680" width="40" height="20" as="geometry" />
        </mxCell>
        <mxCell id="0xpriwAW6CMoNW8QU97v-38" value="e_nro_2" style="strokeWidth=2;html=1;shape=mxgraph.flowchart.document2;whiteSpace=wrap;size=0.25;" vertex="1" parent="WIyWlLk6GJQsqaUBKTNV-1">
          <mxGeometry x="190" y="730" width="80" height="50" as="geometry" />
        </mxCell>
        <mxCell id="0xpriwAW6CMoNW8QU97v-39" value="" style="endArrow=classic;html=1;" edge="1" parent="WIyWlLk6GJQsqaUBKTNV-1">
          <mxGeometry width="50" height="50" relative="1" as="geometry">
            <mxPoint x="230" y="850" as="sourcePoint" />
            <mxPoint x="230" y="870" as="targetPoint" />
          </mxGeometry>
        </mxCell>
        <mxCell id="0xpriwAW6CMoNW8QU97v-40" value="" style="endArrow=classic;html=1;" edge="1" parent="WIyWlLk6GJQsqaUBKTNV-1">
          <mxGeometry width="50" height="50" relative="1" as="geometry">
            <mxPoint x="229.5" y="780" as="sourcePoint" />
            <mxPoint x="229.5" y="800" as="targetPoint" />
          </mxGeometry>
        </mxCell>
        <mxCell id="0xpriwAW6CMoNW8QU97v-41" value="e_nro_1" style="strokeWidth=2;html=1;shape=mxgraph.flowchart.document2;whiteSpace=wrap;size=0.25;" vertex="1" parent="WIyWlLk6GJQsqaUBKTNV-1">
          <mxGeometry x="190" y="800" width="80" height="50" as="geometry" />
        </mxCell>
        <mxCell id="0xpriwAW6CMoNW8QU97v-43" style="edgeStyle=orthogonalEdgeStyle;rounded=0;orthogonalLoop=1;jettySize=auto;html=1;entryX=0.5;entryY=0;entryDx=0;entryDy=0;entryPerimeter=0;" edge="1" parent="WIyWlLk6GJQsqaUBKTNV-1" source="0xpriwAW6CMoNW8QU97v-42" target="0xpriwAW6CMoNW8QU97v-144">
          <mxGeometry relative="1" as="geometry">
            <mxPoint x="230" y="1000" as="targetPoint" />
          </mxGeometry>
        </mxCell>
        <mxCell id="0xpriwAW6CMoNW8QU97v-42" value="e_nro_3" style="strokeWidth=2;html=1;shape=mxgraph.flowchart.document2;whiteSpace=wrap;size=0.25;" vertex="1" parent="WIyWlLk6GJQsqaUBKTNV-1">
          <mxGeometry x="190" y="870" width="80" height="50" as="geometry" />
        </mxCell>
        <mxCell id="0xpriwAW6CMoNW8QU97v-136" value="" style="endArrow=classic;html=1;entryX=0.5;entryY=0;entryDx=0;entryDy=0;entryPerimeter=0;" edge="1" parent="WIyWlLk6GJQsqaUBKTNV-1" target="0xpriwAW6CMoNW8QU97v-11">
          <mxGeometry width="50" height="50" relative="1" as="geometry">
            <mxPoint x="274.5" y="490" as="sourcePoint" />
            <mxPoint x="274.5" y="520" as="targetPoint" />
          </mxGeometry>
        </mxCell>
        <mxCell id="0xpriwAW6CMoNW8QU97v-139" style="edgeStyle=orthogonalEdgeStyle;rounded=0;orthogonalLoop=1;jettySize=auto;html=1;exitX=1;exitY=0.5;exitDx=0;exitDy=0;exitPerimeter=0;" edge="1" parent="WIyWlLk6GJQsqaUBKTNV-1" source="0xpriwAW6CMoNW8QU97v-137" target="0xpriwAW6CMoNW8QU97v-138">
          <mxGeometry relative="1" as="geometry" />
        </mxCell>
        <mxCell id="0xpriwAW6CMoNW8QU97v-150" style="edgeStyle=orthogonalEdgeStyle;rounded=0;orthogonalLoop=1;jettySize=auto;html=1;exitX=0;exitY=0.5;exitDx=0;exitDy=0;exitPerimeter=0;entryX=0.5;entryY=0;entryDx=0;entryDy=0;entryPerimeter=0;" edge="1" parent="WIyWlLk6GJQsqaUBKTNV-1" source="0xpriwAW6CMoNW8QU97v-137" target="0xpriwAW6CMoNW8QU97v-152">
          <mxGeometry relative="1" as="geometry">
            <mxPoint x="-160" y="620" as="targetPoint" />
          </mxGeometry>
        </mxCell>
        <mxCell id="0xpriwAW6CMoNW8QU97v-137" value="e_nro_1&amp;gt;e_nro_3" style="strokeWidth=2;html=1;shape=mxgraph.flowchart.decision;whiteSpace=wrap;" vertex="1" parent="WIyWlLk6GJQsqaUBKTNV-1">
          <mxGeometry x="-80" y="590" width="120" height="60" as="geometry" />
        </mxCell>
        <mxCell id="0xpriwAW6CMoNW8QU97v-138" value="e_nro_3" style="strokeWidth=2;html=1;shape=mxgraph.flowchart.document2;whiteSpace=wrap;size=0.25;" vertex="1" parent="WIyWlLk6GJQsqaUBKTNV-1">
          <mxGeometry x="40" y="665" width="80" height="50" as="geometry" />
        </mxCell>
        <mxCell id="0xpriwAW6CMoNW8QU97v-140" value="" style="endArrow=classic;html=1;" edge="1" parent="WIyWlLk6GJQsqaUBKTNV-1">
          <mxGeometry width="50" height="50" relative="1" as="geometry">
            <mxPoint x="79.5" y="715" as="sourcePoint" />
            <mxPoint x="79.5" y="735" as="targetPoint" />
          </mxGeometry>
        </mxCell>
        <mxCell id="0xpriwAW6CMoNW8QU97v-141" value="" style="endArrow=classic;html=1;" edge="1" parent="WIyWlLk6GJQsqaUBKTNV-1">
          <mxGeometry width="50" height="50" relative="1" as="geometry">
            <mxPoint x="79.5" y="790" as="sourcePoint" />
            <mxPoint x="79.5" y="810" as="targetPoint" />
          </mxGeometry>
        </mxCell>
        <mxCell id="0xpriwAW6CMoNW8QU97v-142" value="e_nro_1" style="strokeWidth=2;html=1;shape=mxgraph.flowchart.document2;whiteSpace=wrap;size=0.25;" vertex="1" parent="WIyWlLk6GJQsqaUBKTNV-1">
          <mxGeometry x="40" y="740" width="80" height="50" as="geometry" />
        </mxCell>
        <mxCell id="0xpriwAW6CMoNW8QU97v-143" value="e_nro_2" style="strokeWidth=2;html=1;shape=mxgraph.flowchart.document2;whiteSpace=wrap;size=0.25;" vertex="1" parent="WIyWlLk6GJQsqaUBKTNV-1">
          <mxGeometry x="40" y="810" width="80" height="50" as="geometry" />
        </mxCell>
        <mxCell id="0xpriwAW6CMoNW8QU97v-144" value="end" style="strokeWidth=2;html=1;shape=mxgraph.flowchart.start_1;whiteSpace=wrap;" vertex="1" parent="WIyWlLk6GJQsqaUBKTNV-1">
          <mxGeometry x="225" y="1140" width="100" height="60" as="geometry" />
        </mxCell>
        <mxCell id="0xpriwAW6CMoNW8QU97v-145" value="sim" style="text;html=1;align=center;verticalAlign=middle;resizable=0;points=[];autosize=1;" vertex="1" parent="WIyWlLk6GJQsqaUBKTNV-1">
          <mxGeometry x="50" y="600" width="30" height="20" as="geometry" />
        </mxCell>
        <mxCell id="0xpriwAW6CMoNW8QU97v-148" value="" style="endArrow=none;html=1;exitX=0.5;exitY=0.92;exitDx=0;exitDy=0;exitPerimeter=0;" edge="1" parent="WIyWlLk6GJQsqaUBKTNV-1" source="0xpriwAW6CMoNW8QU97v-143">
          <mxGeometry width="50" height="50" relative="1" as="geometry">
            <mxPoint x="80" y="930" as="sourcePoint" />
            <mxPoint x="270" y="1070" as="targetPoint" />
            <Array as="points">
              <mxPoint x="80" y="1040" />
              <mxPoint x="80" y="1070" />
              <mxPoint x="100" y="1070" />
            </Array>
          </mxGeometry>
        </mxCell>
        <mxCell id="0xpriwAW6CMoNW8QU97v-151" value="nÃ£o" style="text;html=1;align=center;verticalAlign=middle;resizable=0;points=[];autosize=1;" vertex="1" parent="WIyWlLk6GJQsqaUBKTNV-1">
          <mxGeometry x="-140" y="600" width="40" height="20" as="geometry" />
        </mxCell>
        <mxCell id="0xpriwAW6CMoNW8QU97v-153" style="edgeStyle=orthogonalEdgeStyle;rounded=0;orthogonalLoop=1;jettySize=auto;html=1;exitX=1;exitY=0.5;exitDx=0;exitDy=0;exitPerimeter=0;entryX=0.5;entryY=0;entryDx=0;entryDy=0;entryPerimeter=0;" edge="1" parent="WIyWlLk6GJQsqaUBKTNV-1" source="0xpriwAW6CMoNW8QU97v-152" target="0xpriwAW6CMoNW8QU97v-155">
          <mxGeometry relative="1" as="geometry">
            <mxPoint x="-70" y="690" as="targetPoint" />
          </mxGeometry>
        </mxCell>
        <mxCell id="0xpriwAW6CMoNW8QU97v-164" style="edgeStyle=orthogonalEdgeStyle;rounded=0;orthogonalLoop=1;jettySize=auto;html=1;exitX=0;exitY=0.5;exitDx=0;exitDy=0;exitPerimeter=0;entryX=0.5;entryY=0;entryDx=0;entryDy=0;entryPerimeter=0;" edge="1" parent="WIyWlLk6GJQsqaUBKTNV-1" source="0xpriwAW6CMoNW8QU97v-152" target="0xpriwAW6CMoNW8QU97v-166">
          <mxGeometry relative="1" as="geometry">
            <mxPoint x="-350" y="690" as="targetPoint" />
          </mxGeometry>
        </mxCell>
        <mxCell id="0xpriwAW6CMoNW8QU97v-152" value="e_nro_2&amp;gt;e_nro_3" style="strokeWidth=2;html=1;shape=mxgraph.flowchart.decision;whiteSpace=wrap;" vertex="1" parent="WIyWlLk6GJQsqaUBKTNV-1">
          <mxGeometry x="-260" y="660" width="130" height="60" as="geometry" />
        </mxCell>
        <mxCell id="0xpriwAW6CMoNW8QU97v-154" value="sim" style="text;html=1;align=center;verticalAlign=middle;resizable=0;points=[];autosize=1;" vertex="1" parent="WIyWlLk6GJQsqaUBKTNV-1">
          <mxGeometry x="-120" y="665" width="30" height="20" as="geometry" />
        </mxCell>
        <mxCell id="0xpriwAW6CMoNW8QU97v-155" value="e_nro_1" style="strokeWidth=2;html=1;shape=mxgraph.flowchart.document2;whiteSpace=wrap;size=0.25;" vertex="1" parent="WIyWlLk6GJQsqaUBKTNV-1">
          <mxGeometry x="-120" y="720" width="80" height="50" as="geometry" />
        </mxCell>
        <mxCell id="0xpriwAW6CMoNW8QU97v-156" value="" style="endArrow=classic;html=1;" edge="1" parent="WIyWlLk6GJQsqaUBKTNV-1">
          <mxGeometry width="50" height="50" relative="1" as="geometry">
            <mxPoint x="-80.5" y="840" as="sourcePoint" />
            <mxPoint x="-80.5" y="860" as="targetPoint" />
          </mxGeometry>
        </mxCell>
        <mxCell id="0xpriwAW6CMoNW8QU97v-157" value="" style="endArrow=classic;html=1;" edge="1" parent="WIyWlLk6GJQsqaUBKTNV-1">
          <mxGeometry width="50" height="50" relative="1" as="geometry">
            <mxPoint x="-80.5" y="770" as="sourcePoint" />
            <mxPoint x="-80.5" y="790" as="targetPoint" />
          </mxGeometry>
        </mxCell>
        <mxCell id="0xpriwAW6CMoNW8QU97v-158" value="e_nro_3" style="strokeWidth=2;html=1;shape=mxgraph.flowchart.document2;whiteSpace=wrap;size=0.25;" vertex="1" parent="WIyWlLk6GJQsqaUBKTNV-1">
          <mxGeometry x="-120" y="790" width="80" height="50" as="geometry" />
        </mxCell>
        <mxCell id="0xpriwAW6CMoNW8QU97v-159" value="e_nro_2" style="strokeWidth=2;html=1;shape=mxgraph.flowchart.document2;whiteSpace=wrap;size=0.25;" vertex="1" parent="WIyWlLk6GJQsqaUBKTNV-1">
          <mxGeometry x="-120" y="860" width="80" height="50" as="geometry" />
        </mxCell>
        <mxCell id="0xpriwAW6CMoNW8QU97v-162" value="" style="endArrow=none;html=1;entryX=0.55;entryY=0.92;entryDx=0;entryDy=0;entryPerimeter=0;" edge="1" parent="WIyWlLk6GJQsqaUBKTNV-1" target="0xpriwAW6CMoNW8QU97v-159">
          <mxGeometry width="50" height="50" relative="1" as="geometry">
            <mxPoint x="270" y="1090" as="sourcePoint" />
            <mxPoint x="-70" y="980" as="targetPoint" />
            <Array as="points">
              <mxPoint x="-76" y="1090" />
            </Array>
          </mxGeometry>
        </mxCell>
        <mxCell id="0xpriwAW6CMoNW8QU97v-165" value="nÃ£o" style="text;html=1;align=center;verticalAlign=middle;resizable=0;points=[];autosize=1;" vertex="1" parent="WIyWlLk6GJQsqaUBKTNV-1">
          <mxGeometry x="-320" y="670" width="40" height="20" as="geometry" />
        </mxCell>
        <mxCell id="0xpriwAW6CMoNW8QU97v-166" value="e_nro_1" style="strokeWidth=2;html=1;shape=mxgraph.flowchart.document2;whiteSpace=wrap;size=0.25;" vertex="1" parent="WIyWlLk6GJQsqaUBKTNV-1">
          <mxGeometry x="-400" y="720" width="80" height="50" as="geometry" />
        </mxCell>
        <mxCell id="0xpriwAW6CMoNW8QU97v-167" value="" style="endArrow=classic;html=1;" edge="1" parent="WIyWlLk6GJQsqaUBKTNV-1">
          <mxGeometry width="50" height="50" relative="1" as="geometry">
            <mxPoint x="-360.5" y="840" as="sourcePoint" />
            <mxPoint x="-360.5" y="860" as="targetPoint" />
          </mxGeometry>
        </mxCell>
        <mxCell id="0xpriwAW6CMoNW8QU97v-168" value="" style="endArrow=classic;html=1;" edge="1" parent="WIyWlLk6GJQsqaUBKTNV-1">
          <mxGeometry width="50" height="50" relative="1" as="geometry">
            <mxPoint x="-360.5" y="770" as="sourcePoint" />
            <mxPoint x="-360.5" y="790" as="targetPoint" />
          </mxGeometry>
        </mxCell>
        <mxCell id="0xpriwAW6CMoNW8QU97v-169" value="e_nro_2" style="strokeWidth=2;html=1;shape=mxgraph.flowchart.document2;whiteSpace=wrap;size=0.25;" vertex="1" parent="WIyWlLk6GJQsqaUBKTNV-1">
          <mxGeometry x="-400" y="790" width="80" height="50" as="geometry" />
        </mxCell>
        <mxCell id="0xpriwAW6CMoNW8QU97v-171" style="edgeStyle=orthogonalEdgeStyle;rounded=0;orthogonalLoop=1;jettySize=auto;html=1;entryX=0.36;entryY=0.017;entryDx=0;entryDy=0;entryPerimeter=0;" edge="1" parent="WIyWlLk6GJQsqaUBKTNV-1">
          <mxGeometry relative="1" as="geometry">
            <mxPoint x="-359" y="910" as="sourcePoint" />
            <mxPoint x="262" y="1141.02" as="targetPoint" />
            <Array as="points">
              <mxPoint x="-359" y="1110" />
              <mxPoint x="262" y="1110" />
            </Array>
          </mxGeometry>
        </mxCell>
        <mxCell id="0xpriwAW6CMoNW8QU97v-170" value="e_nro_3" style="strokeWidth=2;html=1;shape=mxgraph.flowchart.document2;whiteSpace=wrap;size=0.25;" vertex="1" parent="WIyWlLk6GJQsqaUBKTNV-1">
          <mxGeometry x="-400" y="860" width="80" height="50" as="geometry" />
        </mxCell>
      </root>
    </mxGraphModel>
  </diagram>
</mxfile>
